<?xml version="1.0" standalone="no"?>
<!DOCTYPE svg PUBLIC "-//W3C//DTD SVG 20010904//EN"
 "http://www.w3.org/TR/2001/REC-SVG-20010904/DTD/svg10.dtd">
<svg version="1.0" xmlns="http://www.w3.org/2000/svg"
 width="512.000000pt" height="512.000000pt" viewBox="0 0 512.000000 512.000000"
 preserveAspectRatio="xMidYMid meet">

<g transform="translate(0.000000,512.000000) scale(0.100000,-0.100000)"
fill="#ffffff" stroke="none">
<path d="M2429 5107 c-56 -16 -130 -69 -163 -116 -58 -84 -56 -35 -56 -1122
l0 -999 -948 0 c-634 0 -968 -4 -1008 -11 -152 -27 -249 -143 -249 -299 0
-156 97 -272 249 -299 40 -7 374 -11 1008 -11 l948 0 2 -1007 3 -1008 23 -50
c53 -114 154 -179 282 -180 129 0 221 61 279 185 l26 55 3 1003 3 1002 988 0
c662 0 1007 4 1047 11 273 49 344 399 112 555 -31 21 -69 36 -111 43 -47 8
-341 9 -1056 4 l-991 -6 0 1006 c0 985 0 1007 -20 1060 -24 64 -87 132 -153
165 -56 28 -155 37 -218 19z"/>
</g>
</svg>
