<?xml version="1.0" standalone="no"?>
<!DOCTYPE svg PUBLIC "-//W3C//DTD SVG 20010904//EN"
 "http://www.w3.org/TR/2001/REC-SVG-20010904/DTD/svg10.dtd">
<svg version="1.0" xmlns="http://www.w3.org/2000/svg"
 width="512.000000pt" height="512.000000pt" viewBox="0 0 420.000000 625.000000"
 preserveAspectRatio="xMidYMid meet">

<g transform="translate(0.000000,512.000000) scale(0.0800000,-0.0800000)"
fill="#ffffff" stroke="none">
<path d="M3893 4925 c-131 -36 -157 -57 -503 -401 l-325 -324 567 -567 568
-568 281 280 c154 154 301 306 325 337 146 188 175 434 71 610 -14 24 -144
161 -289 304 -230 228 -271 265 -328 292 -36 16 -89 35 -118 41 -71 15 -185
13 -249 -4z"/>
<path d="M1624 2758 c-1307 -1308 -1263 -1261 -1313 -1417 -21 -65 -101 -621
-101 -703 0 -57 23 -146 56 -209 64 -128 221 -219 378 -219 64 0 618 77 675
94 74 22 155 63 218 111 32 24 593 580 1248 1234 l1190 1191 -565 565 c-311
311 -567 565 -570 565 -3 0 -550 -546 -1216 -1212z"/>
</g>
</svg>
