<?xml version="1.0" standalone="no"?>
<!DOCTYPE svg PUBLIC "-//W3C//DTD SVG 20010904//EN"
 "http://www.w3.org/TR/2001/REC-SVG-20010904/DTD/svg10.dtd">
<svg version="1.0" xmlns="http://www.w3.org/2000/svg"
 width="512.000000pt" height="512.000000pt" viewBox="0 0 512.000000 512.000000"
 preserveAspectRatio="xMidYMid meet">

<g transform="translate(-130.000000,650.000000) scale(0.150000,-0.150000)"
fill="#ffffff" stroke="none">
<path d="M1420 3827 c-19 -6 -53 -30 -75 -52 -67 -66 -82 -163 -39 -249 9 -17
216 -231 460 -476 l444 -446 0 -44 0 -44 -444 -446 c-244 -245 -451 -460 -460
-478 -29 -57 -31 -121 -6 -179 26 -62 50 -85 114 -114 56 -24 121 -22 178 7
18 9 233 216 478 460 l446 444 44 0 44 0 446 -444 c245 -244 460 -451 478
-460 57 -29 121 -31 179 -6 62 26 85 50 114 114 24 56 22 121 -7 178 -9 18
-216 233 -460 478 l-444 446 0 44 0 44 444 446 c244 245 451 460 460 478 29
57 31 122 7 178 -29 64 -52 88 -114 114 -58 25 -122 23 -179 -6 -18 -9 -233
-216 -478 -460 l-446 -444 -44 0 -44 0 -446 444 c-245 244 -460 451 -479 461
-42 21 -126 28 -171 12z"/>
</g>
</svg>
