<?xml version="1.0" standalone="no"?>
<!DOCTYPE svg PUBLIC "-//W3C//DTD SVG 20010904//EN"
 "http://www.w3.org/TR/2001/REC-SVG-20010904/DTD/svg10.dtd">
<svg version="1.0" xmlns="http://www.w3.org/2000/svg"
 width="512pt" height="512pt" viewBox="0 0 512 512"
 preserveAspectRatio="xMidYMid meet">

<g transform="translate(0,512) scale(0.1,-0.1)"
fill="#ffffff" stroke="none">
<path d="M781 4924 c-171 -46 -324 -208 -360 -382 -16 -75 -16 -3889 0 -3964
27 -130 138 -279 255 -340 105 -56 124 -58 672 -58 555 0 543 -1 582 63 39 63
17 165 -42 199 -18 10 -136 14 -523 18 -488 5 -501 6 -540 27 -51 27 -90 68
-109 115 -14 33 -16 244 -16 1958 0 1714 2 1925 16 1958 19 47 58 88 109 115
l40 22 1585 3 c1122 2 1598 0 1630 -8 65 -16 115 -52 147 -107 l28 -48 5 -742
c5 -730 5 -742 26 -770 62 -84 171 -79 238 11 21 27 21 38 24 719 2 425 -1
725 -7 777 -25 202 -164 369 -360 430 -62 20 -93 20 -1705 19 -1401 0 -1649
-2 -1695 -15z"/>
<path d="M1373 4049 c-106 -52 -105 -203 1 -253 31 -14 137 -16 1103 -16 997
0 1070 1 1103 18 98 49 108 180 18 244 l-33 23 -1075 3 c-1073 2 -1075 2
-1117 -19z"/>
<path d="M1402 3250 c-69 -16 -121 -96 -108 -165 8 -42 46 -88 83 -104 21 -8
316 -11 1115 -9 l1086 3 27 25 c42 39 58 78 52 127 -6 53 -27 87 -70 110 -30
17 -98 18 -1092 20 -583 0 -1075 -2 -1093 -7z"/>
<path d="M4048 2554 c-144 -34 -124 -17 -896 -787 -478 -478 -719 -725 -732
-753 -23 -47 -100 -481 -100 -564 0 -146 127 -270 275 -270 86 0 502 73 555
97 34 16 214 190 757 734 773 776 753 753 788 901 91 386 -262 736 -647 642z
m217 -288 c98 -41 155 -126 155 -230 -1 -89 -26 -134 -137 -248 l-97 -99 -173
173 c-95 95 -173 178 -173 184 0 20 191 196 234 215 50 23 143 25 191 5z
m-457 -609 l172 -172 -474 -474 -474 -474 -208 -38 c-114 -21 -210 -36 -212
-34 -3 3 10 98 28 212 l34 208 470 473 c259 259 475 472 481 472 6 0 88 -78
183 -173z"/>
<path d="M1359 2418 c-90 -61 -88 -182 4 -239 31 -19 51 -19 609 -17 l577 3
31 30 c63 60 63 150 0 210 l-31 30 -578 3 -577 2 -35 -22z"/>
</g>
</svg>
